<?xml version="1.0" ?><!DOCTYPE svg  PUBLIC '-//W3C//DTD SVG 1.1//EN'  'http://www.w3.org/Graphics/SVG/1.1/DTD/svg11.dtd' [
	<!ENTITY stroke_color "#000000">
	<!ENTITY fill_color "#ffffff">
]><svg enable-background="new 0 0 50 50" height="50px" id="Layer_1" inkscape:output_extension="org.inkscape.output.svg.inkscape" inkscape:version="0.46" sodipodi:docbase="/Users/jminor/Sites/olpc/physics.pymunx/Physics.activity/activity" sodipodi:docname="activity-bridge.svg" sodipodi:version="0.32" version="1.1" viewBox="0 0 50 50" width="50px" x="0px" xml:space="preserve" xmlns="http://www.w3.org/2000/svg" xmlns:cc="http://creativecommons.org/ns#" xmlns:dc="http://purl.org/dc/elements/1.1/" xmlns:inkscape="http://www.inkscape.org/namespaces/inkscape" xmlns:rdf="http://www.w3.org/1999/02/22-rdf-syntax-ns#" xmlns:sodipodi="http://sodipodi.sourceforge.net/DTD/sodipodi-0.dtd" xmlns:svg="http://www.w3.org/2000/svg" y="0px"><metadata id="metadata8"><rdf:RDF><cc:Work rdf:about=""><dc:format>image/svg+xml</dc:format><dc:type rdf:resource="http://purl.org/dc/dcmitype/StillImage"/></cc:Work></rdf:RDF></metadata><defs id="defs6"><inkscape:perspective id="perspective2441" inkscape:persp3d-origin="25 : 16.666667 : 1" inkscape:vp_x="0 : 25 : 1" inkscape:vp_y="0 : 1000 : 0" inkscape:vp_z="50 : 25 : 1" sodipodi:type="inkscape:persp3d"/></defs><sodipodi:namedview bordercolor="#666666" borderopacity="1.0" gridtolerance="10.0" guidetolerance="10.0" id="base" inkscape:current-layer="Layer_1" inkscape:cx="1.4550265" inkscape:cy="30.050728" inkscape:pageopacity="0.0" inkscape:pageshadow="2" inkscape:window-height="854" inkscape:window-width="1440" inkscape:window-x="0" inkscape:window-y="0" inkscape:zoom="7.56" objecttolerance="10.0" pagecolor="#ffffff" showgrid="false"/>

<rect height="18.801292" id="rect3251" ry="0.59622061" style="fill:&fill_color;;fill-opacity:1;stroke:&stroke_color;;stroke-width:2;stroke-linecap:butt;stroke-linejoin:miter;stroke-miterlimit:4;stroke-dasharray:none;stroke-opacity:1" transform="matrix(-0.7071068,-0.7071068,0.7071068,-0.7071068,0,0)" width="4.3833032" x="-39.838543" y="-5.7061057"/><rect height="18.801292" id="rect3253" ry="0.59622061" style="fill:&fill_color;;fill-opacity:1;stroke:&stroke_color;;stroke-width:2;stroke-linecap:butt;stroke-linejoin:miter;stroke-miterlimit:4;stroke-dasharray:none;stroke-opacity:1" transform="matrix(-0.7071068,0.7071068,-0.7071068,-0.7071068,0,0)" width="4.3833032" x="-0.27423337" y="-40.687321"/><rect height="20.335262" id="rect3233" ry="0.64486545" style="fill:&fill_color;;fill-opacity:1;stroke:&stroke_color;;stroke-width:2;stroke-linecap:butt;stroke-linejoin:miter;stroke-miterlimit:4;stroke-dasharray:none;stroke-opacity:1" transform="matrix(-0.7071068,-0.7071068,0.7071068,-0.7071068,0,0)" width="4.3299723" x="-26.294531" y="-19.242167"/><rect height="20.335262" id="rect3241" ry="0.64486545" style="fill:&fill_color;;fill-opacity:1;stroke:&stroke_color;;stroke-width:2;stroke-linecap:butt;stroke-linejoin:miter;stroke-miterlimit:4;stroke-dasharray:none;stroke-opacity:1" transform="matrix(0.7071068,-0.7071068,0.7071068,0.7071068,0,0)" width="4.3299723" x="9.1992302" y="34.774803"/><rect height="18.801292" id="rect3231" ry="0.59622061" style="fill:&fill_color;;fill-opacity:1;stroke:&stroke_color;;stroke-width:2;stroke-linecap:butt;stroke-linejoin:miter;stroke-miterlimit:4;stroke-dasharray:none;stroke-opacity:1" transform="matrix(0,-1,1,0,0,0)" width="4.3833032" x="-19.32128" y="15.863904"/><rect height="3.7037036" id="rect2443" ry="1.0486668" style="fill:&fill_color;;fill-opacity:1;fill-rule:evenodd;stroke:&stroke_color;;stroke-width:2;stroke-linecap:butt;stroke-linejoin:miter;stroke-miterlimit:4;stroke-dasharray:none;stroke-opacity:1" width="46.164021" x="1.984127" y="28.703705"/>
<path
     d="m 37.645186,25.124796 c -1.10877,0 -2.018763,0.909992 -2.018763,2.018761 l 0,4.629689 -3.283849,-3.283849 c -0.784855,-0.783184 -2.043082,-0.78485 -2.826264,0 -0.783183,0.784854 -0.784823,2.069998 0,2.85318 l 3.310766,3.28385 -4.683521,0 c -1.10877,0 -2.018762,0.909991 -2.018762,2.018762 0,1.108769 0.909992,1.991843 2.018762,1.991843 l 4.656605,0 -3.28385,3.283849 c -0.783181,0.784854 -0.784823,2.069999 0,2.85318 0.784855,0.783182 2.07,0.757938 2.85318,-0.02692 l 3.256933,-3.283849 0,4.683524 c 0,1.10877 0.909993,1.991844 2.018763,1.991844 1.108769,0 1.991843,-0.883074 1.991843,-1.991844 l 0,-4.71044 3.337683,3.310765 c 0.784853,0.783182 2.043082,0.784855 2.826262,0 0.783182,-0.784853 0.784858,-2.043082 0,-2.826262 l -3.310765,-3.28385 4.656607,0 c 1.10877,0 1.991844,-0.883074 1.991844,-1.991843 0,-1.108771 -0.883074,-2.018763 -1.991844,-2.018763 l -4.683523,0 3.310765,-3.337683 c 0.783182,-0.784854 0.784857,-2.016165 0,-2.799347 -0.784854,-0.78318 -2.043082,-0.811775 -2.826263,-0.02691 l -3.310766,3.337682 0,-4.656604 c 0,-1.10877 -0.883074,-2.018763 -1.991843,-2.018763 z"
     id="rect3894"
     style="fill:#ffffff;fill-opacity:1;stroke:#282828;stroke-width:1.72267997;stroke-linecap:round;stroke-linejoin:round;stroke-miterlimit:4;stroke-opacity:1;stroke-dasharray:none" /></svg>